<?xml version="1.0" encoding="iso-8859-1"?>
<!-- Uploaded to: SVG Repo, www.svgrepo.com, Generator: SVG Repo Mixer Tools -->
<svg height="800px" width="800px" version="1.1" id="Layer_1" xmlns="http://www.w3.org/2000/svg" xmlns:xlink="http://www.w3.org/1999/xlink" 
	 viewBox="0 0 456.032 456.032" xml:space="preserve">
<path style="fill:#FFF8EF;" d="M280.016,108.7c-3.1-2.8-6.4-5.7-9.3-8.4c-5.8-5.8-14-9.1-22.5-9.1c-6.4,0-12.6,1.8-18.1,5.4
	l-66.6,44.4h142.1l2-9.6C302.716,129.3,290.116,117.9,280.016,108.7z"/>
<path style="fill:#CC9966;" d="M409.016,181v-34h-341c-13.8,0-26.4-5.3-36.5-15.3l-8.5-8.5v35.7l1.5,1.5c4.7,4.7,24,19.8,78.5,20.6
	v6c-29.9-0.5-54.3-5.7-72.7-15.4l-5.9,8c0.8,0.8,1.7,1.4,2.8,2l10.2,122.1c1.8,19.6,10.7,36.5,25.1,47.5l0.1,0.1
	c18.4,13.3,41.9,20.4,69.6,20.9h7.7h269v-74h-117.7c-14.4,0-26.2-11.8-26.2-26.2v-32.8c0-14.4,11.8-26.2,26.2-26.2h117.8v-26h-80v-6
	L409.016,181L409.016,181z M159.016,187h-30v-6h30V187z M295.016,187h-102v-6h102V187z"/>
<g>
	<path style="fill:#B37D4D;" d="M29.616,158.4l-1.6-22.4v20.8C28.816,157.6,28.816,157.6,29.616,158.4z"/>
	<path style="fill:#B37D4D;" d="M132.416,367.2L132.416,367.2c2.5,0.1,5,0.1,7.6,0l0,0H132.416z"/>
</g>
<path style="fill:#FFF8EF;" d="M308.016,243c-7.2,0-13,5.8-13,13s5.8,13,13,13s13-5.8,13-13S315.216,243,308.016,243z"/>
<g>
	<path style="fill:#B37D4D;" d="M167.216,51h-99.2c-9.5,0-19.4,3.3-27,9l-12,9h123.8L167.216,51z"/>
	<polygon style="fill:#B37D4D;" points="385.016,141 385.016,75 353.016,75 353.016,69 385.016,69 385.016,51 298.016,51 
		365.516,141 	"/>
	<path style="fill:#B37D4D;" d="M291.216,219.8c-11.1,0-20.2,9.1-20.2,20.2v32.8c0,10.3,9,19.9,19.7,21h0.2h142v-74L291.216,219.8
		L291.216,219.8z M308.016,275c-10.8,0-19-8.2-19-19s8.2-19,19-19s19,8.2,19,19S318.816,275,308.016,275z"/>
</g>
<g>
	<polygon style="fill:#7AC943;" points="139.316,400.7 173.316,444.1 223.916,430 145.316,393.1 	"/>
	<polygon style="fill:#7AC943;" points="149.916,388.5 267.716,444.5 325.516,379 152.016,379 	"/>
	<polygon style="fill:#7AC943;" points="136.716,117.5 235.916,37.6 204.816,12 129.616,110.6 	"/>
	<path style="fill:#7AC943;" d="M155.316,141l102.9-79.4c0.3-0.2,0.8-0.4,1.6-0.4c1.2,0,2.3,0.5,2.6,1l63.2,78.8h32.3l-89.8-120.9
		L116.916,141H155.316z"/>
</g>
<path style="fill:#996632;" d="M68.016,141h30.3l16.2-18.9l-14.8,3.4l-0.5,0.1c-4.1,0.9-8,1.4-11.6,1.4l0,0c-25.3,0-30.4-23-30.6-24
	v-0.2l-0.1-0.2c-2.3-7.8-2.1-16.3-1.4-22l0.5-5.6h-28.4l-1.1,3.4c-1.7,5.1-3.5,11.2-3.5,17.6C23.016,121.2,42.816,141,68.016,141z"
	/>
<g>
	<path style="fill:#B37D4D;" d="M52.016,104c0,0,7.1,35.7,48.2,26.5l39-50.5h-88.8C49.616,87.2,49.616,96,52.016,104z"/>
	<path style="fill:#B37D4D;" d="M132.416,367.2L132.416,367.2h-50c-29.6,0.8-54.4-24-54.4-53.6v-0.8c0,30.4,24.8,54.4,54.4,54.4
		H132.416c-32.4-0.7-53.4-10.3-66.8-20c-13.6-10.4-21.6-26.4-23.2-44l-10.4-124.8c-1.6-0.8-3.2-1.6-4-2.4c2.6,1.4,5.7,2.9,9.2,4.3
		l-0.4-5.1l-2.5-1.3c-0.9-0.4-2.4-1.2-2.7-1.5l-8.5-8.5v148.9c0,32.8,26.6,59.4,59.4,59.4h50L132.416,367.2L132.416,367.2z"/>
</g>
<path style="fill:#CC9966;" d="M28.016,312.8v0.8c0,29.6,24.8,54.4,54.4,53.6h50l0,0h-50C52.816,367.2,28.016,343.2,28.016,312.8z"
	/>
<path style="fill:#E0CBB5;" d="M260.016,68.2l-70.2,54.2l-12.8,9.6l5.8,8.2l6.2-4.2h-9l52.8-35.2c11.2-7.2,25.6-5.6,34.4,3.2
	c13.6,12,31.2,28.8,38.4,32h-9.2c2.9,2.1,5.3,3.7,7.2,4.6l1,0.4h13.9L260.016,68.2z"/>
<polygon style="fill:#FFF8EF;" points="258.716,75.6 258.416,75.2 179.216,136 180.016,136 192.816,126.4 "/>
<path style="fill:#42210B;" d="M188.016,176h112v16h-112V176z M300.016,256c0,4,4,8,8,8s8-4,8-8s-4-8-8-8S300.016,252,300.016,256z
	 M332.016,256c0,13.6-10.4,24-24,24s-24-10.4-24-24s10.4-24,24-24S332.016,242.4,332.016,256z M124.016,176h40v16h-40V176z
	 M209.616,428.8l-66.4-31.2l32,40.8L209.616,428.8z M68.016,56c-8.8,0-16.8,3.2-24,8h107.2l6.4-8H68.016z M228.016,37.6l-23.2-18.4
	l-72,94.4L228.016,37.6z M152.016,384l114.4,54.4l48-54.4H152.016z M258.416,75.2l-79.2,60.8h128L258.416,75.2z M266.416,59.2
	l61.6,76.8h20l-81.6-108.8L131.216,136h22.4l101.6-78.4C258.416,55.2,263.216,55.2,266.416,59.2z M28.016,96c0,22.4,17.6,40,40,40
	h28l43.2-56h-108C29.616,84.8,28.016,90.4,28.016,96z M68.016,152c-16,0-29.6-6.4-40-16.8v21.6c4.8,4.8,24.8,19.2,80,19.2v16
	c-42.4,0-66.4-8-80-16v136.8c0,30.4,24.8,54.4,54.4,54.4h321.6v-64h-112.8c-17.6,0-31.2-14.4-31.2-31.2v-32.8
	c0-17.6,14.4-31.2,31.2-31.2h112.8v-16h-80v-16h80v-24h-16h-16L68.016,152L68.016,152z M428.016,224h-136.8
	c-8.8,0-15.2,7.2-15.2,15.2V272c0,8.8,7.2,15.2,15.2,15.2h136.8V224z M368.016,136h4h8V80h-32V64h32v-8h-72L368.016,136z
	 M420.016,144v64h16c4,0,8,4,8,8v80c0,4-4,8-8,8h-16v72c0,4-4,8-8,8h-76l-61.6,69.6c-2.4,2.4-6.4,3.2-9.6,1.6l-34.4-16.8v0.8l-56,16
	c-0.8,0-1.6,0-2.4,0c-2.4,0-4.8-0.8-6.4-3.2l-53.6-68h-29.6c-38.4,0-70.4-32-70.4-70.4V88h0.8c4-27.2,27.2-48,55.2-48h101.6l28-36.8
	c1.6-1.6,3.2-3.2,5.6-3.2s4,0,5.6,1.6l32,25.6l22.4-17.6c1.6-0.8,4-1.6,5.6-1.6c2.4,0,4,1.6,5.6,3.2l21.6,28.8h92c4,0,8,3.2,8,8v88
	h16C416.016,136,420.016,140,420.016,144z"/>
</svg>